<?xml version="1.0" encoding="UTF-8" standalone="no"?>
<svg
   viewBox="0 0 240 240"
   version="1.1"
   id="svg492"
   xml:space="preserve"
   width="240"
   height="240"
   sodipodi:docname="gitlab-enhancer.svg"
   inkscape:version="1.2.2 (b0a8486541, 2022-12-01)"
   inkscape:export-filename="gitlab-enhancer-128.png"
   inkscape:export-xdpi="51.200001"
   inkscape:export-ydpi="51.200001"
   xmlns:inkscape="http://www.inkscape.org/namespaces/inkscape"
   xmlns:sodipodi="http://sodipodi.sourceforge.net/DTD/sodipodi-0.dtd"
   xmlns="http://www.w3.org/2000/svg"
   xmlns:svg="http://www.w3.org/2000/svg"><sodipodi:namedview
   id="namedview34"
   pagecolor="#ffffff"
   bordercolor="#000000"
   borderopacity="0.25"
   inkscape:showpageshadow="2"
   inkscape:pageopacity="0.0"
   inkscape:pagecheckerboard="0"
   inkscape:deskcolor="#d1d1d1"
   showgrid="false"
   inkscape:zoom="0.26160424"
   inkscape:cx="-1360.8342"
   inkscape:cy="-512.22411"
   inkscape:window-width="1446"
   inkscape:window-height="979"
   inkscape:window-x="498"
   inkscape:window-y="265"
   inkscape:window-maximized="0"
   inkscape:current-layer="svg492" /><defs
   id="defs481"><style
     id="style479">.cls-1{fill:#e24329;}.cls-2{fill:#fc6d26;}.cls-3{fill:#fca326;}</style><clipPath
     clipPathUnits="userSpaceOnUse"
     id="clipPath5760"><rect
       style="fill:#fc6d26"
       id="rect5762"
       width="7.9922104"
       height="7.2677703"
       x="3.0613434"
       y="15.306718" /></clipPath><clipPath
     clipPathUnits="userSpaceOnUse"
     id="clipPath5760-6"><rect
       style="fill:#fc6d26"
       id="rect5762-7"
       width="7.9922104"
       height="7.2677703"
       x="3.0613434"
       y="15.306718" /></clipPath><clipPath
     clipPathUnits="userSpaceOnUse"
     id="clipPath5760-3"><rect
       style="fill:#fc6d26"
       id="rect5762-5"
       width="7.9922104"
       height="7.2677703"
       x="3.0613434"
       y="15.306718" /></clipPath><clipPath
     clipPathUnits="userSpaceOnUse"
     id="clipPath5760-6-2"><rect
       style="fill:#fc6d26"
       id="rect5762-7-9"
       width="7.9922104"
       height="7.2677703"
       x="3.0613434"
       y="15.306718" /></clipPath><clipPath
     clipPathUnits="userSpaceOnUse"
     id="clipPath5760-6-2-2"><rect
       style="fill:#fc6d26"
       id="rect5762-7-9-7"
       width="7.9922104"
       height="7.2677703"
       x="3.0613434"
       y="15.306718" /></clipPath><clipPath
     clipPathUnits="userSpaceOnUse"
     id="clipPath5760-3-9"><rect
       style="fill:#fc6d26"
       id="rect5762-5-3"
       width="7.9922104"
       height="7.2677703"
       x="3.0613434"
       y="15.306718" /></clipPath><clipPath
     clipPathUnits="userSpaceOnUse"
     id="clipPath5760-3-9-0"><rect
       style="fill:#fc6d26"
       id="rect5762-5-3-6"
       width="7.9922104"
       height="7.2677703"
       x="3.0613434"
       y="15.306718" /></clipPath><clipPath
     clipPathUnits="userSpaceOnUse"
     id="clipPath5760-3-9-0-6"><rect
       style="fill:#fc6d26"
       id="rect5762-5-3-6-1"
       width="7.9922104"
       height="7.2677703"
       x="3.0613434"
       y="15.306718" /></clipPath></defs>
    <path
   class="cls-1"
   d="m 216.03113,107.11255 -0.27,-0.69 -26.14,-68.22 a 6.81,6.81 0 0 0 -2.69,-3.24 7,7 0 0 0 -8,0.43 7,7 0 0 0 -2.32,3.52 l -17.65,53.999996 H 87.491128 l -17.65,-53.999996 a 6.86,6.86 0 0 0 -2.32,-3.53 7,7 0 0 0 -8,-0.43 6.87,6.87 0 0 0 -2.69,3.24 l -26.19,68.19 -0.26,0.69 a 48.54,48.54 0 0 0 16.1,56.1 l 0.09,0.07 0.24,0.17 39.82,29.82 19.700002,14.91 12,9.06 a 8.07,8.07 0 0 0 9.76,0 l 12,-9.06 19.7,-14.91 40.06,-30 0.1,-0.08 a 48.56,48.56 0 0 0 16.08,-56.04 z"
   id="path483" />
    <path
   class="cls-2"
   d="m 216.03113,107.11255 -0.27,-0.69 a 88.3,88.3 0 0 0 -35.15,15.8 l -57.41,43.41 c 19.55,14.79 36.57,27.64 36.57,27.64 l 40.06,-30 0.1,-0.08 a 48.56,48.56 0 0 0 16.1,-56.08 z"
   id="path485"
   style="display:inline" />
    <path
   class="cls-3"
   d="m 86.631128,193.27255 19.700002,14.91 12,9.06 a 8.07,8.07 0 0 0 9.76,0 l 12,-9.06 19.7,-14.91 c 0,0 -17.04,-12.89 -36.59,-27.64 -19.55,14.75 -36.570002,27.64 -36.570002,27.64 z"
   id="path487" />
    <path
   class="cls-2"
   d="m 65.781128,122.22255 a 88.19,88.19 0 0 0 -35.14,-15.84 l -0.26,0.69 a 48.54,48.54 0 0 0 16.1,56.1 l 0.09,0.07 0.24,0.17 39.82,29.82 c 0,0 17.000002,-12.85 36.570002,-27.64 z"
   id="path489" />
    <path
   d="m 134.27117,123.94919 7.56501,4.23642 -4.23641,-7.56501 4.23641,-7.56501 -7.56501,4.2364 -7.56501,-4.2364 4.2364,7.56501 -4.2364,7.56501 7.56501,-4.23642 m -36.312034,29.65483 -7.565009,-4.2364 4.236396,7.56501 -4.236396,7.56501 7.565009,-4.23641 7.565014,4.23641 -4.23642,-7.56501 4.23642,-7.56501 -7.565014,4.2364 m -7.565009,-40.54843 4.236396,7.56501 -4.236396,7.56501 7.565009,-4.23642 7.565014,4.23642 -4.23642,-7.56501 4.23642,-7.56501 -7.565014,4.2364 -7.565009,-4.2364 m 26.205183,32.62031 -7.38344,-7.38345 6.41512,-6.41512 7.38345,7.38344 -6.41513,6.41513 m -3.11678,-16.61276 -7.08085,7.08085 c -1.18014,1.11962 -1.18014,3.08652 0,4.26666 l 35.31346,35.31346 c 1.18014,1.18014 3.14704,1.18014 4.26665,0 l 7.08086,-7.08086 c 1.18014,-1.11961 1.18014,-3.08651 0,-4.26665 l -35.31346,-35.31346 c -1.18014,-1.18014 -3.14704,-1.18014 -4.26666,0 z"
   id="path723"
   style="fill:#ffffff;stroke-width:3.02601" />
    <path
   d="m 215.03402,26.957339 -4.20823,11.471599 -2.7204,-11.912435 -11.47158,-4.208214 11.91242,-2.720392 4.20822,-11.4715985 2.7204,11.9124355 11.47159,4.208213 -11.91242,2.720392"
   id="path8872"
   style="fill:#e24329;fill-opacity:1;stroke-width:2.16956" />
    <path
   d="m 224.6414,38.915677 8.01531,-4.40843 -4.40842,8.015326 4.40842,8.015329 -8.01531,-4.40843 -8.01534,4.40843 4.40845,-8.015329 -4.40845,-8.015326 8.01534,4.40843"
   id="path9005"
   style="fill:#fc6d26;fill-opacity:1;stroke-width:2.00382" /><path
   d="m 32.48575,59.88795 8.01531,-4.40843 -4.40842,8.015326 4.40842,8.015329 -8.01531,-4.40843 -8.01534,4.40843 4.40845,-8.015329 -4.40845,-8.015326 8.01534,4.40843"
   id="path9005-6"
   style="fill:#fc6d26;fill-opacity:1;stroke-width:2.00382" />
    <path
   d="m 163.87634,218.941 8.79694,-4.83832 -4.83831,8.79695 4.83831,8.79697 -8.79694,-4.83832 -8.79697,4.83832 4.83834,-8.79697 -4.83834,-8.79695 8.79697,4.83832"
   id="path9005-23"
   style="fill:#e24329;fill-opacity:1;stroke-width:2.19923" />
    <path
   d="m 32.829979,169.85035 8.227067,-4.5249 -4.524882,8.22708 4.524882,8.22709 -8.227067,-4.5249 -8.2271,4.5249 4.524913,-8.22709 -4.524913,-8.22708 8.2271,4.5249"
   id="path9005-2"
   style="fill:#e24329;fill-opacity:1;stroke-width:2.05677" />
    
    <path
   d="m 209.99645,41.555949 -3.17752,5.499275 3.17752,5.499277 -5.6074,-3.116257 -5.60738,3.116257 3.17752,-5.499277 -3.17752,-5.499275 5.60738,3.116257 5.6074,-3.116257"
   id="path9007"
   style="fill:#fca326;fill-opacity:1;stroke-width:1.85102" /><path
   d="m 29.233384,41.260495 -3.17752,5.499275 3.17752,5.499277 -5.6074,-3.116257 -5.60738,3.116257 3.17752,-5.499277 -3.17752,-5.499275 5.60738,3.116257 5.6074,-3.116257"
   id="path9007-3"
   style="fill:#fca326;fill-opacity:1;stroke-width:1.85102" />
    <path
   d="m 153.48779,210.7006 -3.36234,5.81915 3.36234,5.81916 -5.93356,-3.29753 -5.93354,3.29753 3.36234,-5.81916 -3.36234,-5.81915 5.93354,3.29752 5.93356,-3.29752"
   id="path9007-0"
   style="fill:#fca326;fill-opacity:1;stroke-width:1.95868" />
    </svg>
